<?xml version="1.0" encoding="UTF-8" standalone="no"?>
<!-- Created with Inkscape (http://www.inkscape.org/) -->

<svg
   width="800mm"
   height="800mm"
   viewBox="0 0 800 800"
   version="1.1"
   id="svg1"
   xml:space="preserve"
   inkscape:version="1.4 (86a8ad7, 2024-10-11)"
   sodipodi:docname="Giant Microbit Inkscape drg ver 2_0_0.svg"
   xmlns:inkscape="http://www.inkscape.org/namespaces/inkscape"
   xmlns:sodipodi="http://sodipodi.sourceforge.net/DTD/sodipodi-0.dtd"
   xmlns="http://www.w3.org/2000/svg"
   xmlns:svg="http://www.w3.org/2000/svg"
   xmlns:shaper="http://www.shapertools.com/namespaces/shaper"><sodipodi:namedview
     id="namedview1"
     pagecolor="#ffffff"
     bordercolor="#000000"
     borderopacity="0.25"
     inkscape:showpageshadow="2"
     inkscape:pageopacity="0.0"
     inkscape:pagecheckerboard="0"
     inkscape:deskcolor="#d1d1d1"
     inkscape:document-units="mm"
     showgrid="false"
     inkscape:zoom="0.27969993"
     inkscape:cx="1233.4647"
     inkscape:cy="1542.7247"
     inkscape:window-width="2048"
     inkscape:window-height="1082"
     inkscape:window-x="3065"
     inkscape:window-y="-6"
     inkscape:window-maximized="1"
     inkscape:current-layer="layer1" /><defs
     id="defs1" /><g
     inkscape:label="Layer 1"
     inkscape:groupmode="layer"
     id="layer1"><path
       d="m 658.68535,732.54079 -89.28147,0.12227 49.07608,-150.06734 39.99996,-0.0548 54.06137,149.83691 -53.85606,0.0738 z"
       fill="#000000"
       shaper:cutDepth="0.4cm"
       stroke-linecap="round"
       stroke-linejoin="round"
       id="path1-54"
       style="stroke-width:1;stroke:#ff0000;fill:none;stroke-dasharray:none" /><path
       d="m 180.26065,735.36579 -89.281472,0.12227 49.076082,-150.06734 39.99996,-0.0548 54.06137,149.83691 -53.85606,0.0738 z"
       fill="#000000"
       shaper:cutDepth="0.4cm"
       stroke-linecap="round"
       stroke-linejoin="round"
       id="path1-54-3"
       style="fill:none;stroke:#ff0000;stroke-width:1;stroke-dasharray:none" /><path
       d="m 726.29125,583.21394 0.28774,149.99973 49.28145,-0.0945 z"
       fill="#000000"
       shaper:cutDepth="0.4cm"
       stroke-linecap="round"
       stroke-linejoin="round"
       id="path1-3"
       style="fill:none;stroke:#ff0000;stroke-width:1;stroke-dasharray:none" /><path
       d="m 242.83438,585.16943 0.28774,149.99973 49.28145,-0.0945 z"
       fill="#000000"
       shaper:cutDepth="0.4cm"
       stroke-linecap="round"
       stroke-linejoin="round"
       id="path1-3-7"
       style="fill:none;stroke:#ff0000;stroke-width:1;stroke-dasharray:none" /><path
       d="m 80.279138,585.79076 -0.28774,149.99973 -49.28145,-0.0945 z"
       fill="#000000"
       shaper:cutDepth="0.4cm"
       stroke-linecap="round"
       stroke-linejoin="round"
       id="path1-3-9"
       style="fill:none;stroke:#ff0000;stroke-width:1;stroke-dasharray:none" /><path
       d="m 561.15504,583.8257 -0.28774,149.99973 -49.28145,-0.0945 z"
       fill="#000000"
       shaper:cutDepth="0.4cm"
       stroke-linecap="round"
       stroke-linejoin="round"
       id="path1-3-9-2"
       style="fill:none;stroke:#ff0000;stroke-width:1;stroke-dasharray:none" /><g
       id="g1"
       transform="matrix(-10,0,0,-10,673.16766,509.67181)"
       style="fill:none;stroke:#ff0000;stroke-width:0.1;stroke-dasharray:none"><path
         d="m -14.660044,20.005 a 0.005,0.005 0 0 0 -0.005,-0.005 h -2.315088 a 2,2 -40.541602 0 0 -3.039736,0 H -22.5 v -3.071923 a 0.005,0.005 0 0 0 -0.005,-0.005 H -22.9 v -3.076923 h 0.395 a 0.005,0.005 90 0 0 0.005,-0.005 v -3.066923 a 0.005,0.005 0 0 0 -0.005,-0.005 H -22.9 V 7.6923077 h 0.395 a 0.005,0.005 90 0 0 0.005,-0.005 V 4.6203846 a 0.005,0.005 0 0 0 -0.005,-0.005 H -22.9 V 1.5384615 h 0.395 a 0.005,0.005 90 0 0 0.005,-0.005 v -3.066923 a 0.005,0.005 0 0 0 -0.005,-0.005 H -22.9 v -3.0769231 h 0.395 a 0.005,0.005 90 0 0 0.005,-0.005 v -3.0669231 a 0.005,0.005 0 0 0 -0.005,-0.005 H -22.9 v -3.0769233 h 0.395 a 0.005,0.005 90 0 0 0.005,-0.005 v -3.066923 a 0.005,0.005 0 0 0 -0.005,-0.005 H -22.9 v -3.076923 h 0.395 a 0.005,0.005 90 0 0 0.005,-0.005 V -20 h 4.540455 a 0.005,0.005 90 0 0 0.005,-0.005 V -20.4 h 4.545454 v 0.395 a 0.005,0.005 -180 0 0 0.005,0.005 h 4.5354546 a 0.005,0.005 90 0 0 0.005,-0.005 V -20.4 h 4.5454546 v 0.395 a 0.005,0.005 -180 0 0 0.005,0.005 h 4.5354545 a 0.005,0.005 90 0 0 0.005,-0.005 V -20.4 h 4.5454546 v 0.395 a 0.005,0.005 -180 0 0 0.005,0.005 h 4.5354545 a 0.005,0.005 90 0 0 0.005,-0.005 V -20.4 h 4.5454542 v 0.395 a 0.005,0.005 -180 0 0 0.005,0.005 h 4.535455 a 0.005,0.005 90 0 0 0.005,-0.005 V -20.4 h 4.545454 v 0.395 a 0.005,0.005 -180 0 0 0.005,0.005 H 27.5 v 3.071923 a 0.005,0.005 -180 0 0 0.005,0.005 H 27.9 v 3.076923 h -0.395 a 0.005,0.005 -90 0 0 -0.005,0.005 v 3.066923 a 0.005,0.005 -180 0 0 0.005,0.005 H 27.9 v 3.0769233 h -0.395 a 0.005,0.005 -90 0 0 -0.005,0.005 v 3.0669231 a 0.005,0.005 -180 0 0 0.005,0.005 H 27.9 v 3.0769231 h -0.395 a 0.005,0.005 -90 0 0 -0.005,0.005 v 3.066923 a 0.005,0.005 -180 0 0 0.005,0.005 H 27.9 v 3.0769231 h -0.395 a 0.005,0.005 -90 0 0 -0.005,0.005 v 3.0669231 a 0.005,0.005 -180 0 0 0.005,0.005 H 27.9 v 3.0769233 h -0.395 a 0.005,0.005 -90 0 0 -0.005,0.005 v 3.066923 a 0.005,0.005 -180 0 0 0.005,0.005 H 27.9 v 3.076923 h -0.395 a 0.005,0.005 -90 0 0 -0.005,0.005 V 20 h -2.480132 a 2,2 -40.541602 0 0 -3.039736,0 h -2.315088 a 0.005,0.005 -90 0 0 -0.005,0.005 V 20.4 H 17.339956 V 20.005 A 0.005,0.005 0 0 0 17.334956,20 h -2.315088 a 2,2 -40.541602 0 0 -3.039736,0 H 9.3317105 a 0.005,0.005 -90 0 0 -0.005,0.005 V 20.4 H 6.6732895 V 20.005 A 0.005,0.005 0 0 0 6.6682895,20 H 4.0198684 a 2,2 -40.541602 0 0 -3.0397368,0 h -2.6484211 a 0.005,0.005 -90 0 0 -0.005,0.005 V 20.4 h -2.653421 v -0.395 a 0.005,0.005 0 0 0 -0.005,-0.005 h -2.6484211 a 2,2 -40.541602 0 0 -3.0397364,0 h -2.315088 a 0.005,0.005 -90 0 0 -0.005,0.005 V 20.4 h -2.320088 z"
         transform="matrix(1,0,0,-1,22.9,20.4)"
         fill="#000000"
         shaper:cutDepth="0.4cm"
         stroke-linecap="round"
         stroke-linejoin="round"
         id="path1"
         style="fill:none;stroke:#ff0000;stroke-width:0.1;stroke-dasharray:none" /><path
         d="m 19.660044,20 a 0.005,0.005 -90 0 0 0,0.01 v -0.005 a 0.005,0.005 -180 0 1 0.005,-0.005 z"
         transform="matrix(1,0,0,-1,22.9,20.4)"
         fill="#656565"
         fill-rule="nonzero"
         shaper:cutDepth="0.005cm"
         stroke-linecap="round"
         stroke-linejoin="round"
         id="path2"
         style="fill:none;stroke:#ff0000;stroke-width:0.1;stroke-dasharray:none" /><path
         d="M 17.339956,20.01 V 20.005 A 0.005,0.005 0 0 0 17.334956,20 h 0.005 a 0.005,0.005 -90 0 1 0,0.01 z"
         transform="matrix(1,0,0,-1,22.9,20.4)"
         fill="#656565"
         fill-rule="nonzero"
         shaper:cutDepth="0.005cm"
         stroke-linecap="round"
         stroke-linejoin="round"
         id="path3"
         style="fill:none;stroke:#ff0000;stroke-width:0.1;stroke-dasharray:none" /><path
         d="m 9.3267105,20 a 0.005,0.005 -90 0 0 0,0.01 v -0.005 a 0.005,0.005 -180 0 1 0.005,-0.005 z"
         transform="matrix(1,0,0,-1,22.9,20.4)"
         fill="#656565"
         fill-rule="nonzero"
         shaper:cutDepth="0.005cm"
         stroke-linecap="round"
         stroke-linejoin="round"
         id="path4"
         style="fill:none;stroke:#ff0000;stroke-width:0.1;stroke-dasharray:none" /><path
         d="M 6.6732895,20.01 V 20.005 A 0.005,0.005 0 0 0 6.6682895,20 h 0.005 a 0.005,0.005 -90 0 1 0,0.01 z"
         transform="matrix(1,0,0,-1,22.9,20.4)"
         fill="#656565"
         fill-rule="nonzero"
         shaper:cutDepth="0.005cm"
         stroke-linecap="round"
         stroke-linejoin="round"
         id="path5"
         style="fill:none;stroke:#ff0000;stroke-width:0.1;stroke-dasharray:none" /><path
         d="m -1.6732895,20 a 0.005,0.005 -90 0 0 0,0.01 v -0.005 a 0.005,0.005 -180 0 1 0.005,-0.005 z"
         transform="matrix(1,0,0,-1,22.9,20.4)"
         fill="#656565"
         fill-rule="nonzero"
         shaper:cutDepth="0.005cm"
         stroke-linecap="round"
         stroke-linejoin="round"
         id="path6"
         style="fill:none;stroke:#ff0000;stroke-width:0.1;stroke-dasharray:none" /><path
         d="m -4.3267105,20.01 v -0.005 a 0.005,0.005 0 0 0 -0.005,-0.005 h 0.005 a 0.005,0.005 -90 0 1 0,0.01 z"
         transform="matrix(1,0,0,-1,22.9,20.4)"
         fill="#656565"
         fill-rule="nonzero"
         shaper:cutDepth="0.005cm"
         stroke-linecap="round"
         stroke-linejoin="round"
         id="path7"
         style="fill:none;stroke:#ff0000;stroke-width:0.1;stroke-dasharray:none" /><path
         d="m -12.339956,20 a 0.005,0.005 -90 1 0 0,0.01 v -0.005 a 0.005,0.005 -180 0 1 0.005,-0.005 z"
         transform="matrix(1,0,0,-1,22.9,20.4)"
         fill="#656565"
         fill-rule="nonzero"
         shaper:cutDepth="0.005cm"
         stroke-linecap="round"
         stroke-linejoin="round"
         id="path8"
         style="fill:none;stroke:#ff0000;stroke-width:0.1;stroke-dasharray:none" /><path
         d="m -14.660044,20.01 v -0.005 a 0.005,0.005 0 0 0 -0.005,-0.005 h 0.005 a 0.005,0.005 -90 1 1 0,0.01 z"
         transform="matrix(1,0,0,-1,22.9,20.4)"
         fill="#656565"
         fill-rule="nonzero"
         shaper:cutDepth="0.005cm"
         stroke-linecap="round"
         stroke-linejoin="round"
         id="path9"
         style="fill:none;stroke:#ff0000;stroke-width:0.1;stroke-dasharray:none" /><path
         d="m -17.954545,-20 a 0.005,0.005 90 0 0 0,-0.01 v 0.005 a 0.005,0.005 0 0 1 -0.005,0.005 z"
         transform="matrix(1,0,0,-1,22.9,20.4)"
         fill="#656565"
         fill-rule="nonzero"
         shaper:cutDepth="0.005cm"
         stroke-linecap="round"
         stroke-linejoin="round"
         id="path10"
         style="fill:none;stroke:#ff0000;stroke-width:0.1;stroke-dasharray:none" /><path
         d="m -13.409091,-20.01 v 0.005 a 0.005,0.005 -180 0 0 0.005,0.005 h -0.005 a 0.005,0.005 90 1 1 0,-0.01 z"
         transform="matrix(1,0,0,-1,22.9,20.4)"
         fill="#656565"
         fill-rule="nonzero"
         shaper:cutDepth="0.005cm"
         stroke-linecap="round"
         stroke-linejoin="round"
         id="path11"
         style="fill:none;stroke:#ff0000;stroke-width:0.1;stroke-dasharray:none" /><path
         d="m -8.8636364,-20 a 0.005,0.005 90 1 0 0,-0.01 v 0.005 a 0.005,0.005 0 0 1 -0.005,0.005 z"
         transform="matrix(1,0,0,-1,22.9,20.4)"
         fill="#656565"
         fill-rule="nonzero"
         shaper:cutDepth="0.005cm"
         stroke-linecap="round"
         stroke-linejoin="round"
         id="path12"
         style="fill:none;stroke:#ff0000;stroke-width:0.1;stroke-dasharray:none" /><path
         d="m -4.3181818,-20.01 v 0.005 a 0.005,0.005 -180 0 0 0.005,0.005 h -0.005 a 0.005,0.005 90 0 1 0,-0.01 z"
         transform="matrix(1,0,0,-1,22.9,20.4)"
         fill="#656565"
         fill-rule="nonzero"
         shaper:cutDepth="0.005cm"
         stroke-linecap="round"
         stroke-linejoin="round"
         id="path13"
         style="fill:none;stroke:#ff0000;stroke-width:0.1;stroke-dasharray:none" /><path
         d="m 0.2272727,-20 a 0.005,0.005 90 0 0 0,-0.01 v 0.005 a 0.005,0.005 0 0 1 -0.005,0.005 z"
         transform="matrix(1,0,0,-1,22.9,20.4)"
         fill="#656565"
         fill-rule="nonzero"
         shaper:cutDepth="0.005cm"
         stroke-linecap="round"
         stroke-linejoin="round"
         id="path14"
         style="fill:none;stroke:#ff0000;stroke-width:0.1;stroke-dasharray:none" /><path
         d="m 4.7727273,-20.01 v 0.005 a 0.005,0.005 -180 0 0 0.005,0.005 h -0.005 a 0.005,0.005 90 0 1 0,-0.01 z"
         transform="matrix(1,0,0,-1,22.9,20.4)"
         fill="#656565"
         fill-rule="nonzero"
         shaper:cutDepth="0.005cm"
         stroke-linecap="round"
         stroke-linejoin="round"
         id="path15"
         style="fill:none;stroke:#ff0000;stroke-width:0.1;stroke-dasharray:none" /><path
         d="m 9.3181818,-20 a 0.005,0.005 90 1 0 0,-0.01 v 0.005 a 0.005,0.005 0 0 1 -0.005,0.005 z"
         transform="matrix(1,0,0,-1,22.9,20.4)"
         fill="#656565"
         fill-rule="nonzero"
         shaper:cutDepth="0.005cm"
         stroke-linecap="round"
         stroke-linejoin="round"
         id="path16"
         style="fill:none;stroke:#ff0000;stroke-width:0.1;stroke-dasharray:none" /><path
         d="m 13.863636,-20.01 v 0.005 a 0.005,0.005 -180 0 0 0.005,0.005 h -0.005 a 0.005,0.005 90 1 1 0,-0.01 z"
         transform="matrix(1,0,0,-1,22.9,20.4)"
         fill="#656565"
         fill-rule="nonzero"
         shaper:cutDepth="0.005cm"
         stroke-linecap="round"
         stroke-linejoin="round"
         id="path17"
         style="fill:none;stroke:#ff0000;stroke-width:0.1;stroke-dasharray:none" /><path
         d="m 18.409091,-20 a 0.005,0.005 90 0 0 0,-0.01 v 0.005 a 0.005,0.005 0 0 1 -0.005,0.005 z"
         transform="matrix(1,0,0,-1,22.9,20.4)"
         fill="#656565"
         fill-rule="nonzero"
         shaper:cutDepth="0.005cm"
         stroke-linecap="round"
         stroke-linejoin="round"
         id="path18"
         style="fill:none;stroke:#ff0000;stroke-width:0.1;stroke-dasharray:none" /><path
         d="m 22.954545,-20.01 v 0.005 a 0.005,0.005 -180 0 0 0.005,0.005 h -0.005 a 0.005,0.005 90 0 1 0,-0.01 z"
         transform="matrix(1,0,0,-1,22.9,20.4)"
         fill="#656565"
         fill-rule="nonzero"
         shaper:cutDepth="0.005cm"
         stroke-linecap="round"
         stroke-linejoin="round"
         id="path19"
         style="fill:none;stroke:#ff0000;stroke-width:0.1;stroke-dasharray:none" /><path
         d="m -22.5,16.923077 a 0.005,0.005 0 0 0 -0.01,0 h 0.005 a 0.005,0.005 -90 0 1 0.005,0.005 z"
         transform="matrix(1,0,0,-1,22.9,20.4)"
         fill="#656565"
         fill-rule="nonzero"
         shaper:cutDepth="0.005cm"
         stroke-linecap="round"
         stroke-linejoin="round"
         id="path20"
         style="fill:none;stroke:#ff0000;stroke-width:0.1;stroke-dasharray:none" /><path
         d="m -22.51,13.846154 h 0.005 a 0.005,0.005 90 0 0 0.005,-0.005 v 0.005 a 0.005,0.005 0 0 1 -0.01,0 z"
         transform="matrix(1,0,0,-1,22.9,20.4)"
         fill="#656565"
         fill-rule="nonzero"
         shaper:cutDepth="0.005cm"
         stroke-linecap="round"
         stroke-linejoin="round"
         id="path21"
         style="fill:none;stroke:#ff0000;stroke-width:0.1;stroke-dasharray:none" /><path
         d="m -22.5,10.769231 a 0.005,0.005 0 0 0 -0.01,0 h 0.005 a 0.005,0.005 -90 0 1 0.005,0.005 z"
         transform="matrix(1,0,0,-1,22.9,20.4)"
         fill="#656565"
         fill-rule="nonzero"
         shaper:cutDepth="0.005cm"
         stroke-linecap="round"
         stroke-linejoin="round"
         id="path22"
         style="fill:none;stroke:#ff0000;stroke-width:0.1;stroke-dasharray:none" /><path
         d="m -22.51,7.6923077 h 0.005 a 0.005,0.005 90 0 0 0.005,-0.005 v 0.005 a 0.005,0.005 0 0 1 -0.01,0 z"
         transform="matrix(1,0,0,-1,22.9,20.4)"
         fill="#656565"
         fill-rule="nonzero"
         shaper:cutDepth="0.005cm"
         stroke-linecap="round"
         stroke-linejoin="round"
         id="path23"
         style="fill:none;stroke:#ff0000;stroke-width:0.1;stroke-dasharray:none" /><path
         d="m -22.5,4.6153846 a 0.005,0.005 0 0 0 -0.01,0 h 0.005 a 0.005,0.005 -90 0 1 0.005,0.005 z"
         transform="matrix(1,0,0,-1,22.9,20.4)"
         fill="#656565"
         fill-rule="nonzero"
         shaper:cutDepth="0.005cm"
         stroke-linecap="round"
         stroke-linejoin="round"
         id="path24"
         style="fill:none;stroke:#ff0000;stroke-width:0.1;stroke-dasharray:none" /><path
         d="m -22.51,1.5384615 h 0.005 a 0.005,0.005 90 0 0 0.005,-0.005 v 0.005 a 0.005,0.005 0 0 1 -0.01,0 z"
         transform="matrix(1,0,0,-1,22.9,20.4)"
         fill="#656565"
         fill-rule="nonzero"
         shaper:cutDepth="0.005cm"
         stroke-linecap="round"
         stroke-linejoin="round"
         id="path25"
         style="fill:none;stroke:#ff0000;stroke-width:0.1;stroke-dasharray:none" /><path
         d="m -22.5,-1.5384615 a 0.005,0.005 0 0 0 -0.01,0 h 0.005 a 0.005,0.005 -90 0 1 0.005,0.005 z"
         transform="matrix(1,0,0,-1,22.9,20.4)"
         fill="#656565"
         fill-rule="nonzero"
         shaper:cutDepth="0.005cm"
         stroke-linecap="round"
         stroke-linejoin="round"
         id="path26"
         style="fill:none;stroke:#ff0000;stroke-width:0.1;stroke-dasharray:none" /><path
         d="m -22.51,-4.6153846 h 0.005 a 0.005,0.005 90 0 0 0.005,-0.005 v 0.005 a 0.005,0.005 0 0 1 -0.01,0 z"
         transform="matrix(1,0,0,-1,22.9,20.4)"
         fill="#656565"
         fill-rule="nonzero"
         shaper:cutDepth="0.005cm"
         stroke-linecap="round"
         stroke-linejoin="round"
         id="path27"
         style="fill:none;stroke:#ff0000;stroke-width:0.1;stroke-dasharray:none" /><path
         d="m -22.5,-7.6923077 a 0.005,0.005 0 0 0 -0.01,0 h 0.005 a 0.005,0.005 -90 0 1 0.005,0.005 z"
         transform="matrix(1,0,0,-1,22.9,20.4)"
         fill="#656565"
         fill-rule="nonzero"
         shaper:cutDepth="0.005cm"
         stroke-linecap="round"
         stroke-linejoin="round"
         id="path28"
         style="fill:none;stroke:#ff0000;stroke-width:0.1;stroke-dasharray:none" /><path
         d="m -22.51,-10.769231 h 0.005 a 0.005,0.005 90 0 0 0.005,-0.005 v 0.005 a 0.005,0.005 0 0 1 -0.01,0 z"
         transform="matrix(1,0,0,-1,22.9,20.4)"
         fill="#656565"
         fill-rule="nonzero"
         shaper:cutDepth="0.005cm"
         stroke-linecap="round"
         stroke-linejoin="round"
         id="path29"
         style="fill:none;stroke:#ff0000;stroke-width:0.1;stroke-dasharray:none" /><path
         d="m -22.5,-13.846154 a 0.005,0.005 0 0 0 -0.01,0 h 0.005 a 0.005,0.005 -90 0 1 0.005,0.005 z"
         transform="matrix(1,0,0,-1,22.9,20.4)"
         fill="#656565"
         fill-rule="nonzero"
         shaper:cutDepth="0.005cm"
         stroke-linecap="round"
         stroke-linejoin="round"
         id="path30"
         style="fill:none;stroke:#ff0000;stroke-width:0.1;stroke-dasharray:none" /><path
         d="m -22.51,-16.923077 h 0.005 a 0.005,0.005 90 0 0 0.005,-0.005 v 0.005 a 0.005,0.005 0 0 1 -0.01,0 z"
         transform="matrix(1,0,0,-1,22.9,20.4)"
         fill="#656565"
         fill-rule="nonzero"
         shaper:cutDepth="0.005cm"
         stroke-linecap="round"
         stroke-linejoin="round"
         id="path31"
         style="fill:none;stroke:#ff0000;stroke-width:0.1;stroke-dasharray:none" /><path
         d="m 27.5,-16.923077 a 0.005,0.005 -180 0 0 0.01,0 h -0.005 a 0.005,0.005 90 0 1 -0.005,-0.005 z"
         transform="matrix(1,0,0,-1,22.9,20.4)"
         fill="#656565"
         fill-rule="nonzero"
         shaper:cutDepth="0.005cm"
         stroke-linecap="round"
         stroke-linejoin="round"
         id="path32"
         style="fill:none;stroke:#ff0000;stroke-width:0.1;stroke-dasharray:none" /><path
         d="m 27.51,-13.846154 h -0.005 a 0.005,0.005 -90 0 0 -0.005,0.005 v -0.005 a 0.005,0.005 -180 0 1 0.01,0 z"
         transform="matrix(1,0,0,-1,22.9,20.4)"
         fill="#656565"
         fill-rule="nonzero"
         shaper:cutDepth="0.005cm"
         stroke-linecap="round"
         stroke-linejoin="round"
         id="path33"
         style="fill:none;stroke:#ff0000;stroke-width:0.1;stroke-dasharray:none" /><path
         d="m 27.5,-10.769231 a 0.005,0.005 -180 0 0 0.01,0 h -0.005 a 0.005,0.005 90 0 1 -0.005,-0.005 z"
         transform="matrix(1,0,0,-1,22.9,20.4)"
         fill="#656565"
         fill-rule="nonzero"
         shaper:cutDepth="0.005cm"
         stroke-linecap="round"
         stroke-linejoin="round"
         id="path34"
         style="fill:none;stroke:#ff0000;stroke-width:0.1;stroke-dasharray:none" /><path
         d="m 27.51,-7.6923077 h -0.005 a 0.005,0.005 -90 0 0 -0.005,0.005 v -0.005 a 0.005,0.005 -180 0 1 0.01,0 z"
         transform="matrix(1,0,0,-1,22.9,20.4)"
         fill="#656565"
         fill-rule="nonzero"
         shaper:cutDepth="0.005cm"
         stroke-linecap="round"
         stroke-linejoin="round"
         id="path35"
         style="fill:none;stroke:#ff0000;stroke-width:0.1;stroke-dasharray:none" /><path
         d="m 27.5,-4.6153846 a 0.005,0.005 -180 0 0 0.01,0 h -0.005 a 0.005,0.005 90 0 1 -0.005,-0.005 z"
         transform="matrix(1,0,0,-1,22.9,20.4)"
         fill="#656565"
         fill-rule="nonzero"
         shaper:cutDepth="0.005cm"
         stroke-linecap="round"
         stroke-linejoin="round"
         id="path36"
         style="fill:none;stroke:#ff0000;stroke-width:0.1;stroke-dasharray:none" /><path
         d="m 27.51,-1.5384615 h -0.005 a 0.005,0.005 -90 0 0 -0.005,0.005 v -0.005 a 0.005,0.005 -180 0 1 0.01,0 z"
         transform="matrix(1,0,0,-1,22.9,20.4)"
         fill="#656565"
         fill-rule="nonzero"
         shaper:cutDepth="0.005cm"
         stroke-linecap="round"
         stroke-linejoin="round"
         id="path37"
         style="fill:none;stroke:#ff0000;stroke-width:0.1;stroke-dasharray:none" /><path
         d="m 27.5,1.5384615 a 0.005,0.005 -180 0 0 0.01,0 h -0.005 a 0.005,0.005 90 0 1 -0.005,-0.005 z"
         transform="matrix(1,0,0,-1,22.9,20.4)"
         fill="#656565"
         fill-rule="nonzero"
         shaper:cutDepth="0.005cm"
         stroke-linecap="round"
         stroke-linejoin="round"
         id="path38"
         style="fill:none;stroke:#ff0000;stroke-width:0.1;stroke-dasharray:none" /><path
         d="m 27.51,4.6153846 h -0.005 a 0.005,0.005 -90 0 0 -0.005,0.005 v -0.005 a 0.005,0.005 -180 0 1 0.01,0 z"
         transform="matrix(1,0,0,-1,22.9,20.4)"
         fill="#656565"
         fill-rule="nonzero"
         shaper:cutDepth="0.005cm"
         stroke-linecap="round"
         stroke-linejoin="round"
         id="path39"
         style="fill:none;stroke:#ff0000;stroke-width:0.1;stroke-dasharray:none" /><path
         d="m 27.5,7.6923077 a 0.005,0.005 -180 0 0 0.01,0 h -0.005 a 0.005,0.005 90 0 1 -0.005,-0.005 z"
         transform="matrix(1,0,0,-1,22.9,20.4)"
         fill="#656565"
         fill-rule="nonzero"
         shaper:cutDepth="0.005cm"
         stroke-linecap="round"
         stroke-linejoin="round"
         id="path40"
         style="fill:none;stroke:#ff0000;stroke-width:0.1;stroke-dasharray:none" /><path
         d="m 27.51,10.769231 h -0.005 a 0.005,0.005 -90 0 0 -0.005,0.005 v -0.005 a 0.005,0.005 -180 0 1 0.01,0 z"
         transform="matrix(1,0,0,-1,22.9,20.4)"
         fill="#656565"
         fill-rule="nonzero"
         shaper:cutDepth="0.005cm"
         stroke-linecap="round"
         stroke-linejoin="round"
         id="path41"
         style="fill:none;stroke:#ff0000;stroke-width:0.1;stroke-dasharray:none" /><path
         d="m 27.5,13.846154 a 0.005,0.005 -180 0 0 0.01,0 h -0.005 a 0.005,0.005 90 0 1 -0.005,-0.005 z"
         transform="matrix(1,0,0,-1,22.9,20.4)"
         fill="#656565"
         fill-rule="nonzero"
         shaper:cutDepth="0.005cm"
         stroke-linecap="round"
         stroke-linejoin="round"
         id="path42"
         style="fill:none;stroke:#ff0000;stroke-width:0.1;stroke-dasharray:none" /><path
         d="m 27.51,16.923077 h -0.005 a 0.005,0.005 -90 0 0 -0.005,0.005 v -0.005 a 0.005,0.005 -180 0 1 0.01,0 z"
         transform="matrix(1,0,0,-1,22.9,20.4)"
         fill="#656565"
         fill-rule="nonzero"
         shaper:cutDepth="0.005cm"
         stroke-linecap="round"
         stroke-linejoin="round"
         id="path43"
         style="fill:none;stroke:#ff0000;stroke-width:0.1;stroke-dasharray:none" /><path
         d="m 11.5,13.8 a 2,2 0 1 1 4,0 2,2 0 1 1 -4,0 z"
         transform="matrix(1,0,0,-1,22.9,20.4)"
         fill="#ffffff"
         stroke="#000000"
         stroke-width="0.001cm"
         stroke-linecap="round"
         stroke-linejoin="round"
         shaper:cutDepth="0.4cm"
         id="path44"
         style="fill:none;stroke:#ff0000;stroke-width:0.1;stroke-dasharray:none" /><path
         d="M -2,9.8 H -3 V 7.6 h 1 z"
         transform="matrix(1,0,0,-1,22.9,20.4)"
         fill="#ffffff"
         stroke="#000000"
         stroke-width="0.001cm"
         stroke-linecap="round"
         stroke-linejoin="round"
         shaper:cutDepth="0.4cm"
         id="path45"
         style="fill:none;stroke:#ff0000;stroke-width:0.1;stroke-dasharray:none" /><path
         d="M 3,5.4 H 2 V 3.2 h 1 z"
         transform="matrix(1,0,0,-1,22.9,20.4)"
         fill="#ffffff"
         stroke="#000000"
         stroke-width="0.001cm"
         stroke-linecap="round"
         stroke-linejoin="round"
         shaper:cutDepth="0.4cm"
         id="path46"
         style="fill:none;stroke:#ff0000;stroke-width:0.1;stroke-dasharray:none" /><path
         d="m -2,1 h -1 v -2.2 h 1 z"
         transform="matrix(1,0,0,-1,22.9,20.4)"
         fill="#ffffff"
         stroke="#000000"
         stroke-width="0.001cm"
         stroke-linecap="round"
         stroke-linejoin="round"
         shaper:cutDepth="0.4cm"
         id="path47"
         style="fill:none;stroke:#ff0000;stroke-width:0.1;stroke-dasharray:none" /><path
         d="M 3,-3.4 H 2 v -2.2 h 1 z"
         transform="matrix(1,0,0,-1,22.9,20.4)"
         fill="#ffffff"
         stroke="#000000"
         stroke-width="0.001cm"
         stroke-linecap="round"
         stroke-linejoin="round"
         shaper:cutDepth="0.4cm"
         id="path48"
         style="fill:none;stroke:#ff0000;stroke-width:0.1;stroke-dasharray:none" /><path
         d="m -2,-10 v 2.2 H -3 V -10 Z"
         transform="matrix(1,0,0,-1,22.9,20.4)"
         fill="#ffffff"
         stroke="#000000"
         stroke-width="0.001cm"
         stroke-linecap="round"
         stroke-linejoin="round"
         shaper:cutDepth="0.4cm"
         id="path49"
         style="fill:none;stroke:#ff0000;stroke-width:0.1;stroke-dasharray:none" /><path
         d="m 13,-5.6 v 2.2 h -1 v -2.2 z"
         transform="matrix(1,0,0,-1,22.9,20.4)"
         fill="#ffffff"
         stroke="#000000"
         stroke-width="0.001cm"
         stroke-linecap="round"
         stroke-linejoin="round"
         shaper:cutDepth="0.4cm"
         id="path50"
         style="fill:none;stroke:#ff0000;stroke-width:0.1;stroke-dasharray:none" /><path
         d="m 0.1,-15 a 0.4,0.4 0 1 1 0.8,0 0.4,0.4 0 1 1 -0.8,0 z"
         transform="matrix(1,0,0,-1,22.9,20.4)"
         fill="#ffffff"
         stroke="#000000"
         stroke-width="0.001cm"
         stroke-linecap="round"
         stroke-linejoin="round"
         shaper:cutDepth="0.4cm"
         id="path51"
         style="fill:none;stroke:#ff0000;stroke-width:0.1;stroke-dasharray:none" /><path
         d="m 19.15,-0.25 a 1.1,1.1 0 1 1 2.2,0 1.1,1.1 0 1 1 -2.2,0 z"
         transform="matrix(1,0,0,-1,22.9,20.4)"
         fill="#ffffff"
         stroke="#000000"
         stroke-width="0.001cm"
         stroke-linecap="round"
         stroke-linejoin="round"
         shaper:cutDepth="0.4cm"
         id="path52"
         style="fill:none;stroke:#ff0000;stroke-width:0.1;stroke-dasharray:none" /><path
         d="M 13,7.6 V 9.8 H 12 V 7.6 Z"
         transform="matrix(1,0,0,-1,22.9,20.4)"
         fill="#ffffff"
         stroke="#000000"
         stroke-width="0.001cm"
         stroke-linecap="round"
         stroke-linejoin="round"
         shaper:cutDepth="0.4cm"
         id="path53"
         style="fill:none;stroke:#ff0000;stroke-width:0.1;stroke-dasharray:none" /><path
         d="m 13,-10 v 2.2 H 12 V -10 Z"
         transform="matrix(1,0,0,-1,22.9,20.4)"
         fill="#ffffff"
         stroke="#000000"
         stroke-width="0.001cm"
         stroke-linecap="round"
         stroke-linejoin="round"
         shaper:cutDepth="0.4cm"
         id="path54"
         style="fill:none;stroke:#ff0000;stroke-width:0.1;stroke-dasharray:none" /><path
         d="m -7,-10 v 2.2 H -8 V -10 Z"
         transform="matrix(1,0,0,-1,22.9,20.4)"
         fill="#ffffff"
         stroke="#000000"
         stroke-width="0.001cm"
         stroke-linecap="round"
         stroke-linejoin="round"
         shaper:cutDepth="0.4cm"
         id="path55"
         style="fill:none;stroke:#ff0000;stroke-width:0.1;stroke-dasharray:none" /><path
         d="M 8,-3.4 H 7 v -2.2 h 1 z"
         transform="matrix(1,0,0,-1,22.9,20.4)"
         fill="#ffffff"
         stroke="#000000"
         stroke-width="0.001cm"
         stroke-linecap="round"
         stroke-linejoin="round"
         shaper:cutDepth="0.4cm"
         id="path56"
         style="fill:none;stroke:#ff0000;stroke-width:0.1;stroke-dasharray:none" /><path
         d="m -7,1 h -1 v -2.2 h 1 z"
         transform="matrix(1,0,0,-1,22.9,20.4)"
         fill="#ffffff"
         stroke="#000000"
         stroke-width="0.001cm"
         stroke-linecap="round"
         stroke-linejoin="round"
         shaper:cutDepth="0.4cm"
         id="path57"
         style="fill:none;stroke:#ff0000;stroke-width:0.1;stroke-dasharray:none" /><path
         d="M 8,5.4 H 7 V 3.2 h 1 z"
         transform="matrix(1,0,0,-1,22.9,20.4)"
         fill="#ffffff"
         stroke="#000000"
         stroke-width="0.001cm"
         stroke-linecap="round"
         stroke-linejoin="round"
         shaper:cutDepth="0.4cm"
         id="path58"
         style="fill:none;stroke:#ff0000;stroke-width:0.1;stroke-dasharray:none" /><path
         d="M -7,9.8 H -8 V 7.6 h 1 z"
         transform="matrix(1,0,0,-1,22.9,20.4)"
         fill="#ffffff"
         stroke="#000000"
         stroke-width="0.001cm"
         stroke-linecap="round"
         stroke-linejoin="round"
         shaper:cutDepth="0.4cm"
         id="path59"
         style="fill:none;stroke:#ff0000;stroke-width:0.1;stroke-dasharray:none" /><path
         d="m 21.5,13.8 a 2,2 0 1 1 4,0 2,2 0 1 1 -4,0 z"
         transform="matrix(1,0,0,-1,22.9,20.4)"
         fill="#ffffff"
         stroke="#000000"
         stroke-width="0.001cm"
         stroke-linecap="round"
         stroke-linejoin="round"
         shaper:cutDepth="0.4cm"
         id="path60"
         style="fill:none;stroke:#ff0000;stroke-width:0.1;stroke-dasharray:none" /><path
         d="m 0.5,13.8 a 2,2 0 1 1 4,0 2,2 0 1 1 -4,0 z"
         transform="matrix(1,0,0,-1,22.9,20.4)"
         fill="#ffffff"
         stroke="#000000"
         stroke-width="0.001cm"
         stroke-linecap="round"
         stroke-linejoin="round"
         shaper:cutDepth="0.4cm"
         id="path61"
         style="fill:none;stroke:#ff0000;stroke-width:0.1;stroke-dasharray:none" /><path
         d="M 3,9.8 H 2 V 7.6 h 1 z"
         transform="matrix(1,0,0,-1,22.9,20.4)"
         fill="#ffffff"
         stroke="#000000"
         stroke-width="0.001cm"
         stroke-linecap="round"
         stroke-linejoin="round"
         shaper:cutDepth="0.4cm"
         id="path62"
         style="fill:none;stroke:#ff0000;stroke-width:0.1;stroke-dasharray:none" /><path
         d="M -2,5.4 H -3 V 3.2 h 1 z"
         transform="matrix(1,0,0,-1,22.9,20.4)"
         fill="#ffffff"
         stroke="#000000"
         stroke-width="0.001cm"
         stroke-linecap="round"
         stroke-linejoin="round"
         shaper:cutDepth="0.4cm"
         id="path63"
         style="fill:none;stroke:#ff0000;stroke-width:0.1;stroke-dasharray:none" /><path
         d="M 3,1 H 2 v -2.2 h 1 z"
         transform="matrix(1,0,0,-1,22.9,20.4)"
         fill="#ffffff"
         stroke="#000000"
         stroke-width="0.001cm"
         stroke-linecap="round"
         stroke-linejoin="round"
         shaper:cutDepth="0.4cm"
         id="path64"
         style="fill:none;stroke:#ff0000;stroke-width:0.1;stroke-dasharray:none" /><path
         d="m -2,-3.4 h -1 v -2.2 h 1 z"
         transform="matrix(1,0,0,-1,22.9,20.4)"
         fill="#ffffff"
         stroke="#000000"
         stroke-width="0.001cm"
         stroke-linecap="round"
         stroke-linejoin="round"
         shaper:cutDepth="0.4cm"
         id="path65"
         style="fill:none;stroke:#ff0000;stroke-width:0.1;stroke-dasharray:none" /><path
         d="m 3,-10 v 2.2 H 2 V -10 Z"
         transform="matrix(1,0,0,-1,22.9,20.4)"
         fill="#ffffff"
         stroke="#000000"
         stroke-width="0.001cm"
         stroke-linecap="round"
         stroke-linejoin="round"
         shaper:cutDepth="0.4cm"
         id="path66"
         style="fill:none;stroke:#ff0000;stroke-width:0.1;stroke-dasharray:none" /><path
         d="M 13,-1.2 V 1 h -1 v -2.2 z"
         transform="matrix(1,0,0,-1,22.9,20.4)"
         fill="#ffffff"
         stroke="#000000"
         stroke-width="0.001cm"
         stroke-linecap="round"
         stroke-linejoin="round"
         shaper:cutDepth="0.4cm"
         id="path67"
         style="fill:none;stroke:#ff0000;stroke-width:0.1;stroke-dasharray:none" /><path
         d="m 4.1,-15 a 0.4,0.4 0 1 1 0.8,0 0.4,0.4 0 1 1 -0.8,0 z"
         transform="matrix(1,0,0,-1,22.9,20.4)"
         fill="#ffffff"
         stroke="#000000"
         stroke-width="0.001cm"
         stroke-linecap="round"
         stroke-linejoin="round"
         shaper:cutDepth="0.4cm"
         id="path68"
         style="fill:none;stroke:#ff0000;stroke-width:0.1;stroke-dasharray:none" /><path
         d="m -16.35,-0.25 a 1.1,1.1 0 1 1 2.2,0 1.1,1.1 0 1 1 -2.2,0 z"
         transform="matrix(1,0,0,-1,22.9,20.4)"
         fill="#ffffff"
         stroke="#000000"
         stroke-width="0.001cm"
         stroke-linecap="round"
         stroke-linejoin="round"
         shaper:cutDepth="0.4cm"
         id="path69"
         style="fill:none;stroke:#ff0000;stroke-width:0.1;stroke-dasharray:none" /><path
         d="M 13,3.2 V 5.4 H 12 V 3.2 Z"
         transform="matrix(1,0,0,-1,22.9,20.4)"
         fill="#ffffff"
         stroke="#000000"
         stroke-width="0.001cm"
         stroke-linecap="round"
         stroke-linejoin="round"
         shaper:cutDepth="0.4cm"
         id="path70"
         style="fill:none;stroke:#ff0000;stroke-width:0.1;stroke-dasharray:none" /><path
         d="m 8,-10 v 2.2 H 7 V -10 Z"
         transform="matrix(1,0,0,-1,22.9,20.4)"
         fill="#ffffff"
         stroke="#000000"
         stroke-width="0.001cm"
         stroke-linecap="round"
         stroke-linejoin="round"
         shaper:cutDepth="0.4cm"
         id="path71"
         style="fill:none;stroke:#ff0000;stroke-width:0.1;stroke-dasharray:none" /><path
         d="m -7,-3.4 h -1 v -2.2 h 1 z"
         transform="matrix(1,0,0,-1,22.9,20.4)"
         fill="#ffffff"
         stroke="#000000"
         stroke-width="0.001cm"
         stroke-linecap="round"
         stroke-linejoin="round"
         shaper:cutDepth="0.4cm"
         id="path72"
         style="fill:none;stroke:#ff0000;stroke-width:0.1;stroke-dasharray:none" /><path
         d="M 8,1 H 7 v -2.2 h 1 z"
         transform="matrix(1,0,0,-1,22.9,20.4)"
         fill="#ffffff"
         stroke="#000000"
         stroke-width="0.001cm"
         stroke-linecap="round"
         stroke-linejoin="round"
         shaper:cutDepth="0.4cm"
         id="path73"
         style="fill:none;stroke:#ff0000;stroke-width:0.1;stroke-dasharray:none" /><path
         d="M -7,5.4 H -8 V 3.2 h 1 z"
         transform="matrix(1,0,0,-1,22.9,20.4)"
         fill="#ffffff"
         stroke="#000000"
         stroke-width="0.001cm"
         stroke-linecap="round"
         stroke-linejoin="round"
         shaper:cutDepth="0.4cm"
         id="path74"
         style="fill:none;stroke:#ff0000;stroke-width:0.1;stroke-dasharray:none" /><path
         d="M 8,9.8 H 7 V 7.6 h 1 z"
         transform="matrix(1,0,0,-1,22.9,20.4)"
         fill="#ffffff"
         stroke="#000000"
         stroke-width="0.001cm"
         stroke-linecap="round"
         stroke-linejoin="round"
         shaper:cutDepth="0.4cm"
         id="path75"
         style="fill:none;stroke:#ff0000;stroke-width:0.1;stroke-dasharray:none" /><path
         d="m -10.5,13.8 a 2,2 0 1 1 4,0 2,2 0 1 1 -4,0 z"
         transform="matrix(1,0,0,-1,22.9,20.4)"
         fill="#ffffff"
         stroke="#000000"
         stroke-width="0.001cm"
         stroke-linecap="round"
         stroke-linejoin="round"
         shaper:cutDepth="0.4cm"
         id="path76"
         style="fill:none;stroke:#ff0000;stroke-width:0.1;stroke-dasharray:none" /><path
         d="m -20.5,13.8 a 2,2 0 1 1 4,0 2,2 0 1 1 -4,0 z"
         transform="matrix(1,0,0,-1,22.9,20.4)"
         fill="#ffffff"
         stroke="#000000"
         stroke-width="0.001cm"
         stroke-linecap="round"
         stroke-linejoin="round"
         shaper:cutDepth="0.4cm"
         id="path77"
         style="fill:none;stroke:#ff0000;stroke-width:0.1;stroke-dasharray:none" /></g><path
       d="m 667.09286,51.582344 a 0.05,0.05 0 0 0 -0.05,0.05 v 13.23333 a 0.05,0.05 0 0 0 0.05,0.05 h 0.05 3.9 v 0.05 13.28334 h -49.45454 -0.05 a 0.05,0.05 0 0 0 0.05,-0.05 v -0.05 -3.9 h -45.45455 v 3.9 0.05 a 0.05,0.05 0 0 0 0.05,0.05 h -0.05 -45.45455 -0.05 a 0.05,0.05 0 0 0 0.05,-0.05 v -0.05 -3.9 h -45.45454 v 3.9 0.05 a 0.05,0.05 0 0 0 0.05,0.05 h -0.05 -45.45455 -0.05 a 0.05,0.05 0 0 0 0.05,-0.05 v -0.05 -3.9 h -45.45454 v 3.9 0.05 a 0.05,0.05 0 0 0 0.05,0.05 h -0.05 -45.45455 -0.05 a 0.05,0.05 0 0 0 0.05,-0.05 v -0.05 -3.9 H 303.4065 v 3.9 0.05 a 0.05,0.05 0 0 0 0.05,0.05 h -0.05 -45.45455 -0.05 a 0.05,0.05 0 0 0 0.05,-0.05 v -0.05 -3.9 H 212.4974 v 3.9 0.05 a 0.05,0.05 0 0 0 0.05,0.05 h -0.05 -49.45454 v -13.28334 -0.05 h 3.9 0.05 a 0.05,0.05 0 0 0 0.05,-0.05 v -13.23333 a 0.05,0.05 0 0 0 -0.05,-0.05 h -0.05 -3.9 v -0.05 -13.28333 h 508 v 13.28333 0.05 h -3.9 z"
       fill="#000000"
       shaper:cutDepth="0.4cm"
       stroke-linecap="round"
       stroke-linejoin="round"
       id="path1-8"
       style="stroke-width:1;fill:none;stroke:#ff0000;stroke-dasharray:none" /><path
       d="m 726.50574,103.63479 a 0.05,0.05 0 0 1 -0.05,-0.05 v -0.05 -3.899996 h -0.05 -13.23334 -0.05 v 3.899996 0.05 a 0.05,0.05 0 0 1 -0.05,0.05 h -13.28333 v 30.76923 0.05 a 0.05,0.05 0 0 1 0.05,-0.05 h 0.05 3.9 v 30.76923 h -3.9 -0.05 a 0.05,0.05 0 0 1 -0.05,-0.05 v 0.05 30.76923 0.05 a 0.05,0.05 0 0 1 0.05,-0.05 h 0.05 3.9 v 30.76923 h -3.9 -0.05 a 0.05,0.05 0 0 1 -0.05,-0.05 v 0.05 30.76923 0.05 a 0.05,0.05 0 0 1 0.05,-0.05 h 0.05 3.9 v 30.76923 h -3.9 -0.05 a 0.05,0.05 0 0 1 -0.05,-0.05 v 0.05 30.76923 0.05 a 0.05,0.05 0 0 1 0.05,-0.05 h 0.05 3.9 v 30.76924 h -3.9 -0.05 a 0.05,0.05 0 0 1 -0.05,-0.05 v 0.05 30.76923 0.05 a 0.05,0.05 0 0 1 0.05,-0.05 h 0.05 3.9 v 30.76922 h -3.9 -0.05 a 0.05,0.05 0 0 1 -0.05,-0.05 v 0.05 30.76923 0.05 a 0.05,0.05 0 0 1 0.05,-0.05 h 0.05 3.9 v 30.76924 h -3.9 -0.05 a 0.05,0.05 0 0 1 -0.05,-0.05 v 0.05 30.76923 h 13.28333 a 0.05,0.05 0 0 1 0.05,0.05 v 0.05 3.9 h 0.05 13.23334 0.05 v -3.9 -0.05 a 0.05,0.05 0 0 1 0.05,-0.05 h 13.28333 v -400 z"
       fill="#000000"
       shaper:cutDepth="0.4cm"
       stroke-linecap="round"
       stroke-linejoin="round"
       id="path1-5"
       style="stroke-width:1;fill:none;stroke:#ff0000;stroke-dasharray:none" /><path
       d="m 105.922,506.51249 a 0.05,0.05 0 0 1 0.05,0.05 v 0.05 3.9 h 0.05 13.23333 0.05 v -3.9 -0.05 a 0.05,0.05 0 0 1 0.05,-0.05 h 13.28333 v -30.76923 -0.05 a 0.05,0.05 0 0 1 -0.05,0.05 h -0.05 -3.9 v -30.76923 h 3.9 0.05 a 0.05,0.05 0 0 1 0.05,0.05 v -0.05 -30.76923 -0.05 a 0.05,0.05 0 0 1 -0.05,0.05 h -0.05 -3.9 v -30.76923 h 3.9 0.05 a 0.05,0.05 0 0 1 0.05,0.05 v -0.05 -30.76923 -0.05 a 0.05,0.05 0 0 1 -0.05,0.05 h -0.05 -3.9 v -30.76923 h 3.9 0.05 a 0.05,0.05 0 0 1 0.05,0.05 v -0.05 -30.76923 -0.05 a 0.05,0.05 0 0 1 -0.05,0.05 h -0.05 -3.9 v -30.76924 h 3.9 0.05 a 0.05,0.05 0 0 1 0.05,0.05 v -0.05 -30.76923 -0.05 a 0.05,0.05 0 0 1 -0.05,0.05 h -0.05 -3.9 v -30.76922 h 3.9 0.05 a 0.05,0.05 0 0 1 0.05,0.05 v -0.05 -30.76923 -0.05 a 0.05,0.05 0 0 1 -0.05,0.05 h -0.05 -3.9 v -30.76924 h 3.9 0.05 a 0.05,0.05 0 0 1 0.05,0.05 v -0.05 -30.76923 h -13.28333 a 0.05,0.05 0 0 1 -0.05,-0.05 v -0.05 -3.9 h -0.05 -13.23333 -0.05 v 3.9 0.05 a 0.05,0.05 0 0 1 -0.05,0.05 H 92.638656 v 400 z"
       fill="#000000"
       shaper:cutDepth="0.4cm"
       stroke-linecap="round"
       stroke-linejoin="round"
       id="path1-1"
       style="stroke-width:1;fill:none;stroke:#ff0000;stroke-dasharray:none" /><path
       d="m 670.09105,545.73168 a 0.05,0.05 0 0 1 -0.05,-0.05 v -13.23333 a 0.05,0.05 0 0 1 0.05,-0.05 h 0.05 3.9 v -0.05 -13.28333 h -82.39956 -0.05 a 0.05,0.05 0 0 1 0.05,0.05 v 0.05 3.9 h -23.20088 v -3.9 -0.05 a 0.05,0.05 0 0 1 0.05,-0.05 h -0.05 -80.13245 -0.05 a 0.05,0.05 0 0 1 0.05,0.05 v 0.05 3.9 h -26.53421 v -3.9 -0.05 a 0.05,0.05 0 0 1 0.05,-0.05 h -0.05 -83.46579 -0.05 a 0.05,0.05 0 0 1 0.05,0.05 v 0.05 3.9 h -26.53422 v -3.9 -0.05 a 0.05,0.05 0 0 1 0.05,-0.05 h -0.05 -80.13245 -0.05 a 0.05,0.05 0 0 1 0.05,0.05 v 0.05 3.9 h -23.20088 v -3.9 -0.05 a 0.05,0.05 0 0 1 0.05,-0.05 h -0.05 -82.39956 v 13.28333 0.05 h 3.9 0.05 a 0.05,0.05 0 0 1 0.05,0.05 v 13.23333 a 0.05,0.05 0 0 1 -0.05,0.05 h -0.05 -3.9 v 0.05 13.28334 h 508 v -13.28334 -0.05 h -3.9 z"
       fill="#000000"
       shaper:cutDepth="0.4cm"
       stroke-linecap="round"
       stroke-linejoin="round"
       id="path1-7"
       style="stroke-width:1;fill:none;stroke:#ff0000;stroke-dasharray:none" /></g></svg>
